<?xml version="1.0" encoding="utf-8"?>
<!-- Generator: Adobe Illustrator 19.1.0, SVG Export Plug-In . SVG Version: 6.00 Build 0)  -->
<svg version="1.1" id="Layer_1" xmlns="http://www.w3.org/2000/svg" xmlns:xlink="http://www.w3.org/1999/xlink" x="0px" y="0px"
	 viewBox="0 0 100 70" style="enable-background:new 0 0 100 70;" xml:space="preserve">
<style type="text/css">
	.st0{fill:none;stroke:#FFB74D;stroke-width:0.25;stroke-miterlimit:10;}
</style>
<g>
	<path class="st0" d="M28.1,39.4c-0.2,0-0.4-0.1-0.5-0.2c-0.1-0.1-0.2-0.3-0.2-0.6v-2.2c0-0.4,0.1-0.7,0.2-1.1
		c0.2-0.3,0.4-0.6,0.6-0.9c0.3-0.3,0.6-0.5,0.9-0.6c0.3-0.1,0.7-0.2,1.1-0.2c0.2,0,0.4,0.1,0.6,0.2c0.1,0.2,0.2,0.3,0.2,0.6
		c0,0.2-0.1,0.4-0.2,0.5c-0.2,0.1-0.3,0.2-0.6,0.2c-0.2,0-0.4,0-0.5,0.1c-0.2,0.1-0.3,0.2-0.4,0.3c-0.1,0.1-0.2,0.3-0.3,0.4
		c-0.1,0.2-0.1,0.3-0.1,0.5v2.2c0,0.2-0.1,0.4-0.2,0.5C28.6,39.3,28.4,39.4,28.1,39.4z"/>
	<path class="st0" d="M34.4,33.6c0.4,0,0.7,0.1,1,0.3c0.3,0.2,0.6,0.4,0.8,0.6c0.2,0.3,0.4,0.6,0.5,0.9c0.1,0.3,0.2,0.7,0.2,1.1v2.1
		c0,0.2-0.1,0.4-0.2,0.6c-0.2,0.2-0.3,0.2-0.5,0.2c-0.3,0-0.5-0.1-0.7-0.4c0,0-0.1,0-0.1,0.1c0,0-0.1,0-0.1,0.1
		c-0.2,0.1-0.4,0.2-0.6,0.2c-0.2,0-0.4,0.1-0.7,0.1c-0.6,0-1.1-0.2-1.6-0.5c-0.5-0.3-0.8-0.7-1.1-1.3c-0.1-0.2-0.1-0.4-0.2-0.6
		c0-0.2-0.1-0.4-0.1-0.6s0-0.4,0.1-0.6c0-0.2,0.1-0.4,0.2-0.6c0.2-0.5,0.6-0.9,1.1-1.3c0.5-0.3,1-0.5,1.6-0.5c0.1,0,0.1,0,0.2,0
		C34.3,33.6,34.3,33.6,34.4,33.6z M34,37.8c0.2,0,0.4,0,0.5-0.1c0.2-0.1,0.3-0.2,0.4-0.3c0.1-0.1,0.2-0.3,0.3-0.4
		c0.1-0.2,0.1-0.3,0.1-0.5c0-0.2,0-0.3-0.1-0.5c-0.1-0.2-0.2-0.3-0.3-0.4c-0.1-0.1-0.3-0.2-0.4-0.3c-0.2-0.1-0.3-0.1-0.5-0.1
		c-0.2,0-0.3,0-0.5,0.1c-0.2,0.1-0.3,0.2-0.4,0.3c-0.1,0.1-0.2,0.3-0.3,0.4c-0.1,0.2-0.1,0.3-0.1,0.5c0,0.2,0,0.4,0.1,0.5
		c0.1,0.2,0.2,0.3,0.3,0.4c0.1,0.1,0.3,0.2,0.4,0.3C33.7,37.8,33.8,37.8,34,37.8z"/>
	<path class="st0" d="M38.4,31.8c0.2,0,0.4,0.1,0.5,0.2c0.1,0.2,0.2,0.3,0.2,0.5s-0.1,0.4-0.2,0.5c-0.1,0.2-0.3,0.2-0.5,0.2
		c-0.2,0-0.4-0.1-0.6-0.2c-0.1-0.1-0.2-0.3-0.2-0.6c0-0.2,0.1-0.4,0.2-0.5C38,31.9,38.2,31.8,38.4,31.8z M38.4,33.6
		c0.2,0,0.4,0.1,0.5,0.2c0.1,0.2,0.2,0.3,0.2,0.6v4.2c0,0.2-0.1,0.4-0.2,0.5c-0.1,0.1-0.3,0.2-0.6,0.2c-0.2,0-0.4-0.1-0.5-0.2
		c-0.1-0.1-0.2-0.3-0.3-0.5v-4.3c0-0.2,0.1-0.4,0.3-0.5C38,33.7,38.2,33.6,38.4,33.6z"/>
	<path class="st0" d="M42.7,33.6c0.4,0,0.8,0.1,1.1,0.2c0.4,0.1,0.7,0.3,0.9,0.6c0.3,0.3,0.5,0.5,0.6,0.9c0.2,0.3,0.2,0.7,0.2,1.1
		v2.2c0,0.2-0.1,0.4-0.2,0.5c-0.1,0.2-0.3,0.2-0.5,0.2c-0.2,0-0.4-0.1-0.6-0.2c-0.2-0.1-0.2-0.3-0.2-0.5v-2.2c0-0.2,0-0.4-0.1-0.5
		c-0.1-0.2-0.2-0.3-0.3-0.4c-0.1-0.1-0.3-0.2-0.4-0.3c-0.2-0.1-0.3-0.1-0.5-0.1c-0.2,0-0.3,0-0.5,0.1c-0.2,0.1-0.3,0.2-0.4,0.3
		c-0.1,0.1-0.2,0.2-0.3,0.4c-0.1,0.2-0.1,0.3-0.1,0.5v2.2c0,0.2-0.1,0.4-0.2,0.5c-0.2,0.2-0.3,0.2-0.6,0.2s-0.4-0.1-0.6-0.2
		c-0.2-0.1-0.2-0.3-0.2-0.5v-2.2c0-0.4,0.1-0.8,0.2-1.1c0.1-0.4,0.4-0.7,0.6-0.9c0.3-0.3,0.6-0.5,0.9-0.6
		C41.9,33.6,42.3,33.6,42.7,33.6z"/>
	<path class="st0" d="M51.1,31.8c0.2,0,0.4,0.1,0.5,0.2c0.2,0.1,0.2,0.3,0.2,0.6v3.9c0,0.4-0.1,0.8-0.2,1.1
		c-0.2,0.4-0.4,0.7-0.6,0.9c-0.3,0.3-0.6,0.5-0.9,0.6c-0.4,0.2-0.7,0.2-1.1,0.2c-0.4,0-0.8-0.1-1.1-0.2c-0.4-0.2-0.7-0.4-0.9-0.6
		c-0.3-0.3-0.5-0.6-0.6-0.9c-0.2-0.4-0.2-0.7-0.2-1.1c0-0.4,0.1-0.8,0.2-1.1c0.2-0.4,0.4-0.7,0.6-0.9c0.3-0.3,0.6-0.5,0.9-0.6
		c0.4-0.2,0.7-0.2,1.1-0.2c0.5,0,0.9,0.1,1.3,0.3v-1.4c0-0.1,0-0.2,0.1-0.3c0-0.1,0.1-0.2,0.2-0.3c0.1-0.1,0.2-0.1,0.3-0.2
		C50.9,31.8,51,31.8,51.1,31.8z M49,35.2c-0.2,0-0.4,0-0.5,0.1c-0.2,0.1-0.3,0.2-0.4,0.3c-0.1,0.1-0.2,0.3-0.3,0.4
		c-0.1,0.2-0.1,0.3-0.1,0.5c0,0.2,0,0.4,0.1,0.5c0.1,0.2,0.2,0.3,0.3,0.4c0.1,0.1,0.3,0.2,0.4,0.3c0.2,0.1,0.3,0.1,0.5,0.1
		c0.2,0,0.3,0,0.5-0.1c0.2-0.1,0.3-0.2,0.4-0.3c0.1-0.1,0.2-0.3,0.3-0.4c0.1-0.2,0.1-0.3,0.1-0.5c0-0.2,0-0.4-0.1-0.5
		c-0.1-0.2-0.2-0.3-0.3-0.4c-0.1-0.1-0.3-0.2-0.4-0.3C49.3,35.2,49.2,35.2,49,35.2z"/>
	<path class="st0" d="M55.7,33.6c0.4,0,0.7,0.1,1,0.3c0.3,0.2,0.6,0.4,0.8,0.6c0.2,0.3,0.4,0.6,0.5,0.9c0.1,0.3,0.2,0.7,0.2,1.1v2.1
		c0,0.2-0.1,0.4-0.2,0.6c-0.2,0.2-0.3,0.2-0.5,0.2c-0.3,0-0.5-0.1-0.7-0.4c0,0-0.1,0-0.1,0.1c0,0-0.1,0-0.1,0.1
		c-0.2,0.1-0.4,0.2-0.6,0.2c-0.2,0-0.4,0.1-0.7,0.1c-0.6,0-1.1-0.2-1.6-0.5c-0.5-0.3-0.8-0.7-1.1-1.3c-0.1-0.2-0.1-0.4-0.2-0.6
		c0-0.2-0.1-0.4-0.1-0.6s0-0.4,0.1-0.6c0-0.2,0.1-0.4,0.2-0.6c0.2-0.5,0.6-0.9,1.1-1.3c0.5-0.3,1-0.5,1.6-0.5c0.1,0,0.1,0,0.2,0
		C55.6,33.6,55.7,33.6,55.7,33.6z M55.4,37.8c0.2,0,0.4,0,0.5-0.1c0.2-0.1,0.3-0.2,0.4-0.3c0.1-0.1,0.2-0.3,0.3-0.4
		c0.1-0.2,0.1-0.3,0.1-0.5c0-0.2,0-0.3-0.1-0.5c-0.1-0.2-0.2-0.3-0.3-0.4c-0.1-0.1-0.3-0.2-0.4-0.3c-0.2-0.1-0.3-0.1-0.5-0.1
		c-0.2,0-0.3,0-0.5,0.1c-0.2,0.1-0.3,0.2-0.4,0.3c-0.1,0.1-0.2,0.3-0.3,0.4c-0.1,0.2-0.1,0.3-0.1,0.5c0,0.2,0,0.4,0.1,0.5
		c0.1,0.2,0.2,0.3,0.3,0.4c0.1,0.1,0.3,0.2,0.4,0.3C55,37.8,55.2,37.8,55.4,37.8z"/>
	<path class="st0" d="M61.8,33.6c0.4,0,0.8,0.1,1.1,0.2c0.4,0.1,0.7,0.3,0.9,0.6c0.3,0.3,0.5,0.5,0.6,0.9c0.2,0.3,0.2,0.7,0.2,1.1
		v2.2c0,0.2-0.1,0.4-0.2,0.5c-0.1,0.2-0.3,0.2-0.5,0.2c-0.2,0-0.4-0.1-0.6-0.2c-0.2-0.1-0.2-0.3-0.2-0.5v-2.2c0-0.2,0-0.4-0.1-0.5
		c-0.1-0.2-0.2-0.3-0.3-0.4c-0.1-0.1-0.3-0.2-0.4-0.3c-0.2-0.1-0.3-0.1-0.5-0.1c-0.2,0-0.3,0-0.5,0.1c-0.2,0.1-0.3,0.2-0.4,0.3
		c-0.1,0.1-0.2,0.2-0.3,0.4c-0.1,0.2-0.1,0.3-0.1,0.5v2.2c0,0.2-0.1,0.4-0.2,0.5c-0.2,0.2-0.3,0.2-0.6,0.2s-0.4-0.1-0.6-0.2
		c-0.2-0.1-0.2-0.3-0.2-0.5v-2.2c0-0.4,0.1-0.8,0.2-1.1c0.1-0.4,0.4-0.7,0.6-0.9c0.3-0.3,0.6-0.5,0.9-0.6
		C61,33.6,61.4,33.6,61.8,33.6z"/>
	<path class="st0" d="M68.2,33.6c0.8,0,1.5,0.3,2,0.8c0.1,0.2,0.2,0.3,0.2,0.5c0,0.2-0.1,0.4-0.2,0.5c-0.1,0.1-0.3,0.2-0.6,0.2
		c-0.2,0-0.4-0.1-0.6-0.2c-0.2-0.2-0.5-0.3-0.9-0.3c-0.2,0-0.4,0-0.5,0.1c-0.2,0.1-0.3,0.2-0.4,0.3c-0.1,0.1-0.2,0.3-0.3,0.4
		c-0.1,0.2-0.1,0.3-0.1,0.5c0,0.2,0,0.4,0.1,0.5c0.1,0.2,0.2,0.3,0.3,0.4c0.1,0.1,0.3,0.2,0.4,0.3c0.2,0.1,0.3,0.1,0.5,0.1
		c0.4,0,0.6-0.1,0.9-0.3c0.1-0.2,0.3-0.2,0.6-0.2c0.2,0,0.4,0.1,0.6,0.2c0.1,0.1,0.1,0.1,0.2,0.2c0,0.1,0.1,0.2,0.1,0.3
		c0,0.1,0,0.2,0,0.3c0,0.1-0.1,0.2-0.1,0.2c-0.3,0.3-0.6,0.5-0.9,0.6c-0.3,0.1-0.7,0.2-1.1,0.2c-0.4,0-0.8-0.1-1.1-0.2
		c-0.4-0.2-0.7-0.4-0.9-0.6c-0.3-0.3-0.5-0.6-0.6-0.9c-0.2-0.4-0.2-0.7-0.2-1.1c0-0.4,0.1-0.8,0.2-1.1c0.2-0.4,0.4-0.7,0.6-0.9
		c0.3-0.3,0.6-0.5,0.9-0.6C67.4,33.7,67.8,33.6,68.2,33.6z"/>
	<path class="st0" d="M73.9,33.6c0.4,0,0.8,0.1,1.1,0.2c0.4,0.2,0.7,0.4,0.9,0.6c0.3,0.3,0.5,0.6,0.6,0.9c0.2,0.3,0.2,0.7,0.2,1.1
		c0,0.2-0.1,0.4-0.2,0.6c-0.2,0.2-0.4,0.2-0.6,0.2h-3.2c0.3,0.4,0.6,0.6,1.1,0.6c0.1,0,0.2,0,0.3,0c0.1,0,0.2-0.1,0.2-0.1
		c0.1,0,0.1-0.1,0.2-0.1c0.1,0,0.1,0,0.2,0c0.2,0,0.3,0.1,0.4,0.1c0.1,0.1,0.2,0.2,0.3,0.3c0.1,0.1,0.1,0.3,0.1,0.4
		c0,0.2-0.1,0.3-0.2,0.4c-0.2,0.2-0.5,0.3-0.7,0.4c-0.3,0.1-0.5,0.1-0.8,0.1c-0.4,0-0.8-0.1-1.1-0.2c-0.4-0.2-0.7-0.4-0.9-0.6
		c-0.3-0.3-0.5-0.6-0.6-0.9c-0.2-0.4-0.2-0.7-0.2-1.1c0-0.4,0.1-0.7,0.2-1.1c0.2-0.4,0.4-0.7,0.6-0.9c0.3-0.3,0.6-0.5,0.9-0.6
		C73.1,33.7,73.5,33.6,73.9,33.6z M74.9,35.7c-0.1-0.2-0.3-0.3-0.5-0.4c-0.2-0.1-0.4-0.1-0.6-0.1c-0.2,0-0.4,0.1-0.6,0.1
		c-0.2,0.1-0.3,0.2-0.5,0.4H74.9z"/>
</g>
<path class="st0" d="M22.6,36.3c-0.7,1.4,0,2.9,1.4,2.8c1.3-0.1,2.4-1.5,1.4-2.8C22.9,32.8,24.1,33.5,22.6,36.3z"/>
</svg>
